<svg width="17" height="17" viewBox="0 0 17 17" fill="none" xmlns="http://www.w3.org/2000/svg">
<path fill-rule="evenodd" clip-rule="evenodd" d="M16.4167 6.99735H10.6111V1.49787C10.6111 1.22194 10.3748 0.997242 10.0833 0.997242H6.91656C6.62519 0.997242 6.3888 1.22194 6.3888 1.49787V6.99735H0.583327C0.291829 6.99735 0.055564 7.22206 0.055564 7.4984V10.4976C0.055564 10.7731 0.291829 10.9974 0.583327 10.9974H6.3888V16.4977C6.3888 16.7732 6.62519 16.998 6.91656 16.998H10.0833C10.3748 16.998 10.6111 16.7732 10.6111 16.4977V10.9974H16.4167C16.708 10.9974 16.9444 10.7731 16.9444 10.4976V7.4984C16.9444 7.22206 16.708 6.99735 16.4167 6.99735Z" fill="white"/>
</svg>
